<svg xmlns="http://www.w3.org/2000/svg" xmlns:xlink="http://www.w3.org/1999/xlink" width="500" zoomAndPan="magnify" viewBox="0 0 375 374.999991" height="500" preserveAspectRatio="xMidYMid meet" version="1.0"><defs><g><g id="id1"/><g id="id2"/></g></defs><g fill="rgb(16.079712%, 10.978699%, 10.978699%)" fill-opacity="1"><g transform="translate(16.713385, 224.829149)"><g><path d="M 0.484375 -15.46875 L 0.484375 -18.921875 L 17.140625 -18.921875 L 17.140625 -15.46875 L 10.78125 -15.46875 L 10.78125 0 L 6.859375 0 L 6.859375 -15.46875 Z M 0.484375 -15.46875 "/></g></g></g><g fill="rgb(16.079712%, 10.978699%, 10.978699%)" fill-opacity="1"><g transform="translate(38.382337, 224.829149)"><g><path d="M 1.703125 0 L 1.703125 -18.921875 L 5.625 -18.921875 L 5.625 -11.328125 L 14.328125 -11.328125 L 14.328125 -18.921875 L 18.25 -18.921875 L 18.25 0 L 14.328125 0 L 14.328125 -7.734375 L 5.625 -7.734375 L 5.625 0 Z M 1.703125 0 "/></g></g></g><g fill="rgb(16.079712%, 10.978699%, 10.978699%)" fill-opacity="1"><g transform="translate(62.401448, 224.829149)"><g><path d="M 1.703125 0 L 1.703125 -18.921875 L 5.625 -18.921875 L 5.625 0 Z M 1.703125 0 "/></g></g></g><g fill="rgb(16.079712%, 10.978699%, 10.978699%)" fill-opacity="1"><g transform="translate(73.805385, 224.829149)"><g><path d="M 11.15625 -3.359375 C 12.15625 -3.359375 13.085938 -3.5625 13.953125 -3.96875 C 14.816406 -4.382812 15.582031 -4.976562 16.25 -5.75 L 18.8125 -3.21875 C 17.914062 -2.15625 16.765625 -1.304688 15.359375 -0.671875 C 13.960938 -0.046875 12.53125 0.265625 11.0625 0.265625 C 9.632812 0.265625 8.300781 0.015625 7.0625 -0.484375 C 5.832031 -0.992188 4.765625 -1.679688 3.859375 -2.546875 C 2.960938 -3.410156 2.253906 -4.4375 1.734375 -5.625 C 1.222656 -6.8125 0.96875 -8.085938 0.96875 -9.453125 C 0.96875 -10.828125 1.226562 -12.113281 1.75 -13.3125 C 2.28125 -14.507812 2.992188 -15.539062 3.890625 -16.40625 C 4.796875 -17.269531 5.863281 -17.953125 7.09375 -18.453125 C 8.332031 -18.960938 9.65625 -19.21875 11.0625 -19.21875 C 12.570312 -19.21875 14.035156 -18.894531 15.453125 -18.25 C 16.878906 -17.613281 18.035156 -16.753906 18.921875 -15.671875 L 16.265625 -13.0625 C 15.597656 -13.882812 14.8125 -14.515625 13.90625 -14.953125 C 13.007812 -15.398438 12.0625 -15.625 11.0625 -15.625 C 10.207031 -15.625 9.40625 -15.460938 8.65625 -15.140625 C 7.914062 -14.828125 7.273438 -14.394531 6.734375 -13.84375 C 6.191406 -13.300781 5.765625 -12.65625 5.453125 -11.90625 C 5.148438 -11.15625 5 -10.335938 5 -9.453125 C 5 -8.585938 5.15625 -7.78125 5.46875 -7.03125 C 5.789062 -6.289062 6.222656 -5.648438 6.765625 -5.109375 C 7.316406 -4.566406 7.96875 -4.140625 8.71875 -3.828125 C 9.46875 -3.515625 10.28125 -3.359375 11.15625 -3.359375 Z M 11.15625 -3.359375 "/></g></g></g><g fill="rgb(16.079712%, 10.978699%, 10.978699%)" fill-opacity="1"><g transform="translate(97.257206, 224.829149)"><g><path d="M 1.703125 0 L 1.703125 -18.921875 L 5.625 -18.921875 L 5.625 -11.328125 L 14.328125 -11.328125 L 14.328125 -18.921875 L 18.25 -18.921875 L 18.25 0 L 14.328125 0 L 14.328125 -7.734375 L 5.625 -7.734375 L 5.625 0 Z M 1.703125 0 "/></g></g></g><g fill="rgb(16.079712%, 10.978699%, 10.978699%)" fill-opacity="1"><g transform="translate(121.276311, 224.829149)"><g/></g></g><g fill="rgb(16.079712%, 10.978699%, 10.978699%)" fill-opacity="1"><g transform="translate(130.762283, 224.829149)"><g><path d="M -0.109375 0 L 7.671875 -18.921875 L 12.21875 -18.921875 L 19.890625 0 L 15.65625 0 L 13.734375 -4.96875 L 5.921875 -4.96875 L 3.96875 0 Z M 7.140625 -8.109375 L 12.546875 -8.109375 L 9.859375 -15.078125 Z M 7.140625 -8.109375 "/></g></g></g><g fill="rgb(16.079712%, 10.978699%, 10.978699%)" fill-opacity="1"><g transform="translate(154.5923, 224.829149)"><g><path d="M 11.859375 -1.34375 L 5.328125 -13.921875 L 5.328125 0 L 1.703125 0 L 1.703125 -18.921875 L 6.734375 -18.921875 L 11.921875 -8.765625 L 17.109375 -18.921875 L 22.140625 -18.921875 L 22.140625 0 L 18.4375 0 L 18.4375 -13.890625 Z M 11.859375 -1.34375 "/></g></g></g><g fill="rgb(16.079712%, 10.978699%, 10.978699%)" fill-opacity="1"><g transform="translate(182.474299, 224.829149)"><g/></g></g><g fill="rgb(16.079712%, 10.978699%, 10.978699%)" fill-opacity="1"><g transform="translate(191.960271, 224.829149)"><g><path d="M 0.484375 -15.46875 L 0.484375 -18.921875 L 17.140625 -18.921875 L 17.140625 -15.46875 L 10.78125 -15.46875 L 10.78125 0 L 6.859375 0 L 6.859375 -15.46875 Z M 0.484375 -15.46875 "/></g></g></g><g fill="rgb(16.079712%, 10.978699%, 10.978699%)" fill-opacity="1"><g transform="translate(213.629217, 224.829149)"><g><path d="M 1.703125 0 L 1.703125 -18.921875 L 5.625 -18.921875 L 5.625 -11.328125 L 14.328125 -11.328125 L 14.328125 -18.921875 L 18.25 -18.921875 L 18.25 0 L 14.328125 0 L 14.328125 -7.734375 L 5.625 -7.734375 L 5.625 0 Z M 1.703125 0 "/></g></g></g><g fill="rgb(16.079712%, 10.978699%, 10.978699%)" fill-opacity="1"><g transform="translate(237.648323, 224.829149)"><g><path d="M 18.171875 -8.1875 C 18.171875 -6.90625 17.96875 -5.738281 17.5625 -4.6875 C 17.164062 -3.632812 16.601562 -2.742188 15.875 -2.015625 C 15.144531 -1.285156 14.257812 -0.722656 13.21875 -0.328125 C 12.1875 0.0664062 11.039062 0.265625 9.78125 0.265625 C 8.5 0.265625 7.335938 0.0664062 6.296875 -0.328125 C 5.265625 -0.722656 4.390625 -1.285156 3.671875 -2.015625 C 2.953125 -2.742188 2.394531 -3.628906 2 -4.671875 C 1.601562 -5.722656 1.40625 -6.894531 1.40625 -8.1875 L 1.40625 -18.921875 L 5.328125 -18.921875 L 5.328125 -8.1875 C 5.328125 -6.726562 5.734375 -5.554688 6.546875 -4.671875 C 7.367188 -3.796875 8.457031 -3.359375 9.8125 -3.359375 C 11.164062 -3.359375 12.242188 -3.796875 13.046875 -4.671875 C 13.847656 -5.554688 14.25 -6.726562 14.25 -8.1875 L 14.25 -18.921875 L 18.171875 -18.921875 Z M 18.171875 -8.1875 "/></g></g></g><g fill="rgb(16.079712%, 10.978699%, 10.978699%)" fill-opacity="1"><g transform="translate(261.289227, 224.829149)"><g><path d="M 11.15625 -3.359375 C 12.15625 -3.359375 13.085938 -3.5625 13.953125 -3.96875 C 14.816406 -4.382812 15.582031 -4.976562 16.25 -5.75 L 18.8125 -3.21875 C 17.914062 -2.15625 16.765625 -1.304688 15.359375 -0.671875 C 13.960938 -0.046875 12.53125 0.265625 11.0625 0.265625 C 9.632812 0.265625 8.300781 0.015625 7.0625 -0.484375 C 5.832031 -0.992188 4.765625 -1.679688 3.859375 -2.546875 C 2.960938 -3.410156 2.253906 -4.4375 1.734375 -5.625 C 1.222656 -6.8125 0.96875 -8.085938 0.96875 -9.453125 C 0.96875 -10.828125 1.226562 -12.113281 1.75 -13.3125 C 2.28125 -14.507812 2.992188 -15.539062 3.890625 -16.40625 C 4.796875 -17.269531 5.863281 -17.953125 7.09375 -18.453125 C 8.332031 -18.960938 9.65625 -19.21875 11.0625 -19.21875 C 12.570312 -19.21875 14.035156 -18.894531 15.453125 -18.25 C 16.878906 -17.613281 18.035156 -16.753906 18.921875 -15.671875 L 16.265625 -13.0625 C 15.597656 -13.882812 14.8125 -14.515625 13.90625 -14.953125 C 13.007812 -15.398438 12.0625 -15.625 11.0625 -15.625 C 10.207031 -15.625 9.40625 -15.460938 8.65625 -15.140625 C 7.914062 -14.828125 7.273438 -14.394531 6.734375 -13.84375 C 6.191406 -13.300781 5.765625 -12.65625 5.453125 -11.90625 C 5.148438 -11.15625 5 -10.335938 5 -9.453125 C 5 -8.585938 5.15625 -7.78125 5.46875 -7.03125 C 5.789062 -6.289062 6.222656 -5.648438 6.765625 -5.109375 C 7.316406 -4.566406 7.96875 -4.140625 8.71875 -3.828125 C 9.46875 -3.515625 10.28125 -3.359375 11.15625 -3.359375 Z M 11.15625 -3.359375 "/></g></g></g><g fill="rgb(16.079712%, 10.978699%, 10.978699%)" fill-opacity="1"><g transform="translate(284.741042, 224.829149)"><g/></g></g><g fill="rgb(16.079712%, 10.978699%, 10.978699%)" fill-opacity="1"><g transform="translate(294.227014, 224.829149)"><g><path d="M 1.703125 0 L 1.703125 -18.921875 L 5.625 -18.921875 L 5.625 -3.453125 L 15.96875 -3.453125 L 15.96875 0 Z M 1.703125 0 "/></g></g></g><g fill="rgb(16.079712%, 10.978699%, 10.978699%)" fill-opacity="1"><g transform="translate(315.247648, 224.829149)"><g><path d="M 0.484375 -15.46875 L 0.484375 -18.921875 L 17.140625 -18.921875 L 17.140625 -15.46875 L 10.78125 -15.46875 L 10.78125 0 L 6.859375 0 L 6.859375 -15.46875 Z M 0.484375 -15.46875 "/></g></g></g><g fill="rgb(16.079712%, 10.978699%, 10.978699%)" fill-opacity="1"><g transform="translate(336.916594, 224.829149)"><g><path d="M 1.703125 0 L 1.703125 -18.921875 L 8.96875 -18.921875 C 10.375 -18.921875 11.691406 -18.675781 12.921875 -18.1875 C 14.148438 -17.707031 15.207031 -17.039062 16.09375 -16.1875 C 16.988281 -15.34375 17.691406 -14.332031 18.203125 -13.15625 C 18.710938 -11.988281 18.96875 -10.738281 18.96875 -9.40625 C 18.96875 -8.09375 18.710938 -6.859375 18.203125 -5.703125 C 17.691406 -4.546875 16.988281 -3.546875 16.09375 -2.703125 C 15.207031 -1.867188 14.148438 -1.207031 12.921875 -0.71875 C 11.691406 -0.238281 10.375 0 8.96875 0 Z M 8.953125 -15.4375 L 5.625 -15.4375 L 5.625 -3.484375 L 8.953125 -3.484375 C 9.773438 -3.484375 10.550781 -3.632812 11.28125 -3.9375 C 12.007812 -4.25 12.644531 -4.671875 13.1875 -5.203125 C 13.726562 -5.734375 14.148438 -6.359375 14.453125 -7.078125 C 14.765625 -7.796875 14.921875 -8.570312 14.921875 -9.40625 C 14.921875 -10.25 14.765625 -11.039062 14.453125 -11.78125 C 14.148438 -12.519531 13.726562 -13.160156 13.1875 -13.703125 C 12.644531 -14.242188 12.007812 -14.664062 11.28125 -14.96875 C 10.550781 -15.28125 9.773438 -15.4375 8.953125 -15.4375 Z M 8.953125 -15.4375 "/></g></g></g><g fill="rgb(16.079712%, 10.978699%, 10.978699%)" fill-opacity="1"><g transform="translate(360.908677, 224.829149)"><g><path d="M 3.25 -4.140625 C 3.851562 -4.140625 4.367188 -3.921875 4.796875 -3.484375 C 5.234375 -3.054688 5.453125 -2.535156 5.453125 -1.921875 C 5.453125 -1.328125 5.234375 -0.8125 4.796875 -0.375 C 4.367188 0.0507812 3.851562 0.265625 3.25 0.265625 C 2.65625 0.265625 2.140625 0.0507812 1.703125 -0.375 C 1.265625 -0.8125 1.046875 -1.328125 1.046875 -1.921875 C 1.046875 -2.535156 1.265625 -3.054688 1.703125 -3.484375 C 2.140625 -3.921875 2.65625 -4.140625 3.25 -4.140625 Z M 3.25 -4.140625 "/></g></g></g><g fill="rgb(16.079712%, 10.978699%, 10.978699%)" fill-opacity="1"><g transform="translate(16.713385, 194.578888)"><g><path d="M 7.140625 -8.421875 L 4.65625 -8.421875 L 4.65625 0 L 2.578125 0 L 2.578125 -8.421875 L 0.90625 -8.421875 L 0.90625 -10.328125 L 2.578125 -10.328125 L 2.578125 -11.6875 C 2.578125 -12.59375 2.867188 -13.335938 3.453125 -13.921875 C 4.035156 -14.503906 4.785156 -14.796875 5.703125 -14.796875 C 6.234375 -14.796875 6.675781 -14.691406 7.03125 -14.484375 C 7.382812 -14.285156 7.644531 -14.09375 7.8125 -13.90625 L 7.109375 -12.328125 C 6.972656 -12.460938 6.796875 -12.585938 6.578125 -12.703125 C 6.367188 -12.816406 6.15625 -12.875 5.9375 -12.875 C 5.457031 -12.875 5.125 -12.757812 4.9375 -12.53125 C 4.75 -12.300781 4.65625 -12.019531 4.65625 -11.6875 L 4.65625 -10.328125 L 7.140625 -10.328125 Z M 7.140625 -8.421875 "/></g></g></g><g fill="rgb(16.079712%, 10.978699%, 10.978699%)" fill-opacity="1"><g transform="translate(26.771188, 194.578888)"><g><path d="M 11.515625 -5.265625 C 11.515625 -4.191406 11.273438 -3.242188 10.796875 -2.421875 C 10.328125 -1.609375 9.6875 -0.96875 8.875 -0.5 C 8.070312 -0.03125 7.171875 0.203125 6.171875 0.203125 C 5.160156 0.203125 4.25 -0.03125 3.4375 -0.5 C 2.625 -0.96875 1.976562 -1.609375 1.5 -2.421875 C 1.03125 -3.242188 0.796875 -4.191406 0.796875 -5.265625 C 0.796875 -6.328125 1.03125 -7.269531 1.5 -8.09375 C 1.976562 -8.914062 2.625 -9.5625 3.4375 -10.03125 C 4.25 -10.5 5.160156 -10.734375 6.171875 -10.734375 C 7.171875 -10.734375 8.070312 -10.5 8.875 -10.03125 C 9.6875 -9.5625 10.328125 -8.914062 10.796875 -8.09375 C 11.273438 -7.269531 11.515625 -6.328125 11.515625 -5.265625 Z M 9.40625 -5.265625 C 9.414062 -5.972656 9.273438 -6.597656 8.984375 -7.140625 C 8.703125 -7.679688 8.3125 -8.097656 7.8125 -8.390625 C 7.320312 -8.691406 6.773438 -8.84375 6.171875 -8.84375 C 5.554688 -8.84375 5 -8.691406 4.5 -8.390625 C 4 -8.097656 3.601562 -7.679688 3.3125 -7.140625 C 3.019531 -6.597656 2.882812 -5.972656 2.90625 -5.265625 C 2.882812 -4.566406 3.019531 -3.945312 3.3125 -3.40625 C 3.601562 -2.875 4 -2.453125 4.5 -2.140625 C 5 -1.835938 5.554688 -1.6875 6.171875 -1.6875 C 6.773438 -1.6875 7.320312 -1.835938 7.8125 -2.140625 C 8.3125 -2.453125 8.703125 -2.875 8.984375 -3.40625 C 9.273438 -3.945312 9.414062 -4.566406 9.40625 -5.265625 Z M 9.40625 -5.265625 "/></g></g></g><g fill="rgb(16.079712%, 10.978699%, 10.978699%)" fill-opacity="1"><g transform="translate(41.266724, 194.578888)"><g><path d="M 11.515625 -5.265625 C 11.515625 -4.191406 11.273438 -3.242188 10.796875 -2.421875 C 10.328125 -1.609375 9.6875 -0.96875 8.875 -0.5 C 8.070312 -0.03125 7.171875 0.203125 6.171875 0.203125 C 5.160156 0.203125 4.25 -0.03125 3.4375 -0.5 C 2.625 -0.96875 1.976562 -1.609375 1.5 -2.421875 C 1.03125 -3.242188 0.796875 -4.191406 0.796875 -5.265625 C 0.796875 -6.328125 1.03125 -7.269531 1.5 -8.09375 C 1.976562 -8.914062 2.625 -9.5625 3.4375 -10.03125 C 4.25 -10.5 5.160156 -10.734375 6.171875 -10.734375 C 7.171875 -10.734375 8.070312 -10.5 8.875 -10.03125 C 9.6875 -9.5625 10.328125 -8.914062 10.796875 -8.09375 C 11.273438 -7.269531 11.515625 -6.328125 11.515625 -5.265625 Z M 9.40625 -5.265625 C 9.414062 -5.972656 9.273438 -6.597656 8.984375 -7.140625 C 8.703125 -7.679688 8.3125 -8.097656 7.8125 -8.390625 C 7.320312 -8.691406 6.773438 -8.84375 6.171875 -8.84375 C 5.554688 -8.84375 5 -8.691406 4.5 -8.390625 C 4 -8.097656 3.601562 -7.679688 3.3125 -7.140625 C 3.019531 -6.597656 2.882812 -5.972656 2.90625 -5.265625 C 2.882812 -4.566406 3.019531 -3.945312 3.3125 -3.40625 C 3.601562 -2.875 4 -2.453125 4.5 -2.140625 C 5 -1.835938 5.554688 -1.6875 6.171875 -1.6875 C 6.773438 -1.6875 7.320312 -1.835938 7.8125 -2.140625 C 8.3125 -2.453125 8.703125 -2.875 8.984375 -3.40625 C 9.273438 -3.945312 9.414062 -4.566406 9.40625 -5.265625 Z M 9.40625 -5.265625 "/></g></g></g><g fill="rgb(16.079712%, 10.978699%, 10.978699%)" fill-opacity="1"><g transform="translate(55.76226, 194.578888)"><g><path d="M 11.28125 -14.8125 L 11.28125 0 L 9.234375 0 L 9.234375 -1.484375 C 8.921875 -1.066406 8.460938 -0.679688 7.859375 -0.328125 C 7.265625 0.0234375 6.585938 0.203125 5.828125 0.203125 C 4.878906 0.203125 4.023438 -0.03125 3.265625 -0.5 C 2.503906 -0.96875 1.898438 -1.613281 1.453125 -2.4375 C 1.015625 -3.269531 0.796875 -4.210938 0.796875 -5.265625 C 0.796875 -6.328125 1.015625 -7.269531 1.453125 -8.09375 C 1.898438 -8.914062 2.492188 -9.5625 3.234375 -10.03125 C 3.984375 -10.5 4.828125 -10.734375 5.765625 -10.734375 C 6.515625 -10.734375 7.191406 -10.578125 7.796875 -10.265625 C 8.398438 -9.960938 8.878906 -9.601562 9.234375 -9.1875 L 9.234375 -14.8125 Z M 6.109375 -1.578125 C 6.742188 -1.578125 7.300781 -1.738281 7.78125 -2.0625 C 8.257812 -2.382812 8.632812 -2.820312 8.90625 -3.375 C 9.175781 -3.9375 9.3125 -4.566406 9.3125 -5.265625 C 9.3125 -5.972656 9.175781 -6.601562 8.90625 -7.15625 C 8.632812 -7.707031 8.257812 -8.144531 7.78125 -8.46875 C 7.300781 -8.789062 6.742188 -8.953125 6.109375 -8.953125 C 5.472656 -8.953125 4.914062 -8.789062 4.4375 -8.46875 C 3.957031 -8.144531 3.582031 -7.707031 3.3125 -7.15625 C 3.039062 -6.601562 2.90625 -5.972656 2.90625 -5.265625 C 2.90625 -4.566406 3.039062 -3.9375 3.3125 -3.375 C 3.582031 -2.820312 3.957031 -2.382812 4.4375 -2.0625 C 4.914062 -1.738281 5.472656 -1.578125 6.109375 -1.578125 Z M 6.109375 -1.578125 "/></g></g></g><g fill="rgb(16.079712%, 10.978699%, 10.978699%)" fill-opacity="1"><g transform="translate(70.637603, 194.578888)"><g/></g></g><g fill="rgb(16.079712%, 10.978699%, 10.978699%)" fill-opacity="1"><g transform="translate(78.436546, 194.578888)"><g><path d="M 3.125 -12.515625 C 2.65625 -12.515625 2.304688 -12.632812 2.078125 -12.875 C 1.847656 -13.113281 1.734375 -13.425781 1.734375 -13.8125 C 1.734375 -14.144531 1.847656 -14.441406 2.078125 -14.703125 C 2.304688 -14.972656 2.65625 -15.109375 3.125 -15.109375 C 3.59375 -15.109375 3.9375 -14.988281 4.15625 -14.75 C 4.382812 -14.507812 4.5 -14.195312 4.5 -13.8125 C 4.5 -13.476562 4.382812 -13.175781 4.15625 -12.90625 C 3.9375 -12.644531 3.59375 -12.515625 3.125 -12.515625 Z M 3.5 0 L 1.4375 0 L 1.4375 -10.515625 L 3.5 -10.515625 Z M 3.5 0 "/></g></g></g><g fill="rgb(16.079712%, 10.978699%, 10.978699%)" fill-opacity="1"><g transform="translate(86.195506, 194.578888)"><g><path d="M 6.953125 -10.734375 C 7.890625 -10.734375 8.617188 -10.535156 9.140625 -10.140625 C 9.660156 -9.753906 10.023438 -9.234375 10.234375 -8.578125 C 10.441406 -7.929688 10.546875 -7.207031 10.546875 -6.40625 L 10.546875 0 L 8.484375 0 L 8.484375 -6.265625 C 8.484375 -6.773438 8.414062 -7.226562 8.28125 -7.625 C 8.15625 -8.019531 7.929688 -8.332031 7.609375 -8.5625 C 7.285156 -8.789062 6.835938 -8.882812 6.265625 -8.84375 C 5.734375 -8.84375 5.257812 -8.726562 4.84375 -8.5 C 4.425781 -8.28125 4.097656 -7.984375 3.859375 -7.609375 C 3.617188 -7.234375 3.5 -6.816406 3.5 -6.359375 L 3.5 0 L 1.4375 0 L 1.4375 -10.515625 L 3.5 -10.515625 L 3.5 -8.84375 C 3.820312 -9.34375 4.289062 -9.78125 4.90625 -10.15625 C 5.519531 -10.539062 6.203125 -10.734375 6.953125 -10.734375 Z M 6.953125 -10.734375 "/></g></g></g><g fill="rgb(16.079712%, 10.978699%, 10.978699%)" fill-opacity="1"><g transform="translate(100.291255, 194.578888)"><g><path d="M 6.953125 -10.734375 C 7.890625 -10.734375 8.617188 -10.535156 9.140625 -10.140625 C 9.660156 -9.753906 10.023438 -9.234375 10.234375 -8.578125 C 10.441406 -7.929688 10.546875 -7.207031 10.546875 -6.40625 L 10.546875 0 L 8.484375 0 L 8.484375 -6.265625 C 8.484375 -6.773438 8.414062 -7.226562 8.28125 -7.625 C 8.15625 -8.019531 7.929688 -8.332031 7.609375 -8.5625 C 7.285156 -8.789062 6.835938 -8.882812 6.265625 -8.84375 C 5.734375 -8.84375 5.257812 -8.726562 4.84375 -8.5 C 4.425781 -8.28125 4.097656 -7.984375 3.859375 -7.609375 C 3.617188 -7.234375 3.5 -6.816406 3.5 -6.359375 L 3.5 0 L 1.4375 0 L 1.4375 -10.515625 L 3.5 -10.515625 L 3.5 -8.84375 C 3.820312 -9.34375 4.289062 -9.78125 4.90625 -10.15625 C 5.519531 -10.539062 6.203125 -10.734375 6.953125 -10.734375 Z M 6.953125 -10.734375 "/></g></g></g><g fill="rgb(16.079712%, 10.978699%, 10.978699%)" fill-opacity="1"><g transform="translate(114.387004, 194.578888)"><g><path d="M 11.515625 -5.265625 C 11.515625 -4.191406 11.273438 -3.242188 10.796875 -2.421875 C 10.328125 -1.609375 9.6875 -0.96875 8.875 -0.5 C 8.070312 -0.03125 7.171875 0.203125 6.171875 0.203125 C 5.160156 0.203125 4.25 -0.03125 3.4375 -0.5 C 2.625 -0.96875 1.976562 -1.609375 1.5 -2.421875 C 1.03125 -3.242188 0.796875 -4.191406 0.796875 -5.265625 C 0.796875 -6.328125 1.03125 -7.269531 1.5 -8.09375 C 1.976562 -8.914062 2.625 -9.5625 3.4375 -10.03125 C 4.25 -10.5 5.160156 -10.734375 6.171875 -10.734375 C 7.171875 -10.734375 8.070312 -10.5 8.875 -10.03125 C 9.6875 -9.5625 10.328125 -8.914062 10.796875 -8.09375 C 11.273438 -7.269531 11.515625 -6.328125 11.515625 -5.265625 Z M 9.40625 -5.265625 C 9.414062 -5.972656 9.273438 -6.597656 8.984375 -7.140625 C 8.703125 -7.679688 8.3125 -8.097656 7.8125 -8.390625 C 7.320312 -8.691406 6.773438 -8.84375 6.171875 -8.84375 C 5.554688 -8.84375 5 -8.691406 4.5 -8.390625 C 4 -8.097656 3.601562 -7.679688 3.3125 -7.140625 C 3.019531 -6.597656 2.882812 -5.972656 2.90625 -5.265625 C 2.882812 -4.566406 3.019531 -3.945312 3.3125 -3.40625 C 3.601562 -2.875 4 -2.453125 4.5 -2.140625 C 5 -1.835938 5.554688 -1.6875 6.171875 -1.6875 C 6.773438 -1.6875 7.320312 -1.835938 7.8125 -2.140625 C 8.3125 -2.453125 8.703125 -2.875 8.984375 -3.40625 C 9.273438 -3.945312 9.414062 -4.566406 9.40625 -5.265625 Z M 9.40625 -5.265625 "/></g></g></g><g fill="rgb(16.079712%, 10.978699%, 10.978699%)" fill-opacity="1"><g transform="translate(128.88254, 194.578888)"><g><path d="M 2.65625 -10.515625 L 5.71875 -3 L 8.90625 -10.515625 L 11.03125 -10.515625 L 6.359375 0 L 4.890625 0 L 0.4375 -10.515625 Z M 2.65625 -10.515625 "/></g></g></g><g fill="rgb(16.079712%, 10.978699%, 10.978699%)" fill-opacity="1"><g transform="translate(142.538519, 194.578888)"><g><path d="M 11.234375 -10.515625 L 11.234375 0 L 9.140625 0 L 9.140625 -1.625 C 8.828125 -1.175781 8.351562 -0.757812 7.71875 -0.375 C 7.09375 0.0078125 6.367188 0.203125 5.546875 0.203125 C 4.660156 0.203125 3.851562 -0.03125 3.125 -0.5 C 2.40625 -0.96875 1.832031 -1.613281 1.40625 -2.4375 C 0.976562 -3.269531 0.765625 -4.21875 0.765625 -5.28125 C 0.765625 -6.351562 0.984375 -7.296875 1.421875 -8.109375 C 1.859375 -8.929688 2.460938 -9.570312 3.234375 -10.03125 C 4.015625 -10.5 4.898438 -10.734375 5.890625 -10.734375 C 6.617188 -10.734375 7.257812 -10.570312 7.8125 -10.25 C 8.363281 -9.925781 8.804688 -9.550781 9.140625 -9.125 L 9.140625 -10.515625 Z M 6.03125 -1.703125 C 6.664062 -1.703125 7.222656 -1.859375 7.703125 -2.171875 C 8.179688 -2.484375 8.554688 -2.910156 8.828125 -3.453125 C 9.097656 -3.992188 9.234375 -4.601562 9.234375 -5.28125 C 9.234375 -5.945312 9.097656 -6.546875 8.828125 -7.078125 C 8.554688 -7.617188 8.179688 -8.046875 7.703125 -8.359375 C 7.222656 -8.671875 6.664062 -8.828125 6.03125 -8.828125 C 5.414062 -8.828125 4.863281 -8.671875 4.375 -8.359375 C 3.894531 -8.054688 3.519531 -7.640625 3.25 -7.109375 C 2.988281 -6.578125 2.859375 -5.96875 2.859375 -5.28125 C 2.859375 -4.601562 2.988281 -3.992188 3.25 -3.453125 C 3.519531 -2.910156 3.894531 -2.484375 4.375 -2.171875 C 4.863281 -1.859375 5.414062 -1.703125 6.03125 -1.703125 Z M 6.03125 -1.703125 "/></g></g></g><g fill="rgb(16.079712%, 10.978699%, 10.978699%)" fill-opacity="1"><g transform="translate(157.393881, 194.578888)"><g><path d="M 4.796875 0 L 2.734375 0 L 2.734375 -8.5 L 0.5625 -8.5 L 0.5625 -10.515625 L 2.734375 -10.515625 L 2.734375 -13.1875 L 4.796875 -13.1875 L 4.796875 -10.515625 L 7.25 -10.515625 L 7.25 -8.5 L 4.796875 -8.5 Z M 4.796875 0 "/></g></g></g><g fill="rgb(16.079712%, 10.978699%, 10.978699%)" fill-opacity="1"><g transform="translate(167.271772, 194.578888)"><g><path d="M 3.125 -12.515625 C 2.65625 -12.515625 2.304688 -12.632812 2.078125 -12.875 C 1.847656 -13.113281 1.734375 -13.425781 1.734375 -13.8125 C 1.734375 -14.144531 1.847656 -14.441406 2.078125 -14.703125 C 2.304688 -14.972656 2.65625 -15.109375 3.125 -15.109375 C 3.59375 -15.109375 3.9375 -14.988281 4.15625 -14.75 C 4.382812 -14.507812 4.5 -14.195312 4.5 -13.8125 C 4.5 -13.476562 4.382812 -13.175781 4.15625 -12.90625 C 3.9375 -12.644531 3.59375 -12.515625 3.125 -12.515625 Z M 3.5 0 L 1.4375 0 L 1.4375 -10.515625 L 3.5 -10.515625 Z M 3.5 0 "/></g></g></g><g fill="rgb(16.079712%, 10.978699%, 10.978699%)" fill-opacity="1"><g transform="translate(175.030732, 194.578888)"><g><path d="M 11.515625 -5.265625 C 11.515625 -4.191406 11.273438 -3.242188 10.796875 -2.421875 C 10.328125 -1.609375 9.6875 -0.96875 8.875 -0.5 C 8.070312 -0.03125 7.171875 0.203125 6.171875 0.203125 C 5.160156 0.203125 4.25 -0.03125 3.4375 -0.5 C 2.625 -0.96875 1.976562 -1.609375 1.5 -2.421875 C 1.03125 -3.242188 0.796875 -4.191406 0.796875 -5.265625 C 0.796875 -6.328125 1.03125 -7.269531 1.5 -8.09375 C 1.976562 -8.914062 2.625 -9.5625 3.4375 -10.03125 C 4.25 -10.5 5.160156 -10.734375 6.171875 -10.734375 C 7.171875 -10.734375 8.070312 -10.5 8.875 -10.03125 C 9.6875 -9.5625 10.328125 -8.914062 10.796875 -8.09375 C 11.273438 -7.269531 11.515625 -6.328125 11.515625 -5.265625 Z M 9.40625 -5.265625 C 9.414062 -5.972656 9.273438 -6.597656 8.984375 -7.140625 C 8.703125 -7.679688 8.3125 -8.097656 7.8125 -8.390625 C 7.320312 -8.691406 6.773438 -8.84375 6.171875 -8.84375 C 5.554688 -8.84375 5 -8.691406 4.5 -8.390625 C 4 -8.097656 3.601562 -7.679688 3.3125 -7.140625 C 3.019531 -6.597656 2.882812 -5.972656 2.90625 -5.265625 C 2.882812 -4.566406 3.019531 -3.945312 3.3125 -3.40625 C 3.601562 -2.875 4 -2.453125 4.5 -2.140625 C 5 -1.835938 5.554688 -1.6875 6.171875 -1.6875 C 6.773438 -1.6875 7.320312 -1.835938 7.8125 -2.140625 C 8.3125 -2.453125 8.703125 -2.875 8.984375 -3.40625 C 9.273438 -3.945312 9.414062 -4.566406 9.40625 -5.265625 Z M 9.40625 -5.265625 "/></g></g></g><g fill="rgb(16.079712%, 10.978699%, 10.978699%)" fill-opacity="1"><g transform="translate(189.526268, 194.578888)"><g><path d="M 6.953125 -10.734375 C 7.890625 -10.734375 8.617188 -10.535156 9.140625 -10.140625 C 9.660156 -9.753906 10.023438 -9.234375 10.234375 -8.578125 C 10.441406 -7.929688 10.546875 -7.207031 10.546875 -6.40625 L 10.546875 0 L 8.484375 0 L 8.484375 -6.265625 C 8.484375 -6.773438 8.414062 -7.226562 8.28125 -7.625 C 8.15625 -8.019531 7.929688 -8.332031 7.609375 -8.5625 C 7.285156 -8.789062 6.835938 -8.882812 6.265625 -8.84375 C 5.734375 -8.84375 5.257812 -8.726562 4.84375 -8.5 C 4.425781 -8.28125 4.097656 -7.984375 3.859375 -7.609375 C 3.617188 -7.234375 3.5 -6.816406 3.5 -6.359375 L 3.5 0 L 1.4375 0 L 1.4375 -10.515625 L 3.5 -10.515625 L 3.5 -8.84375 C 3.820312 -9.34375 4.289062 -9.78125 4.90625 -10.15625 C 5.519531 -10.539062 6.203125 -10.734375 6.953125 -10.734375 Z M 6.953125 -10.734375 "/></g></g></g></svg>